<?xml version="1.0" ?><svg id="Слой_1" style="enable-background:new 0 0 139 139;" version="1.1" viewBox="0 0 139 139" xml:space="preserve" xmlns="http://www.w3.org/2000/svg" xmlns:xlink="http://www.w3.org/1999/xlink"><style type="text/css">
	.st0{display:none;fill:none;stroke:#000000;stroke-width:6;stroke-miterlimit:10;}
	.st1{fill:none;stroke:#000000;stroke-width:6;stroke-miterlimit:10;}
</style><line class="st0" id="XMLID_9_" x1="18" x2="70.8" y1="96" y2="121"/><line class="st0" id="XMLID_10_" x1="68.2" x2="121" y1="121" y2="96"/><line class="st0" id="XMLID_11_" x1="121" x2="121" y1="96" y2="41.1"/><line class="st0" id="XMLID_12_" x1="122.7" x2="68.2" y1="43.8" y2="18"/><line class="st0" id="XMLID_13_" x1="70.8" x2="18" y1="18" y2="43"/><line class="st0" id="XMLID_14_" x1="18" x2="18" y1="43" y2="96"/><line class="st0" id="XMLID_15_" x1="18" x2="69.5" y1="43" y2="68"/><line class="st0" id="XMLID_16_" x1="69.5" x2="121" y1="68" y2="43"/><line class="st0" id="XMLID_17_" x1="69.5" x2="69.5" y1="68" y2="121"/><line class="st0" id="XMLID_20_" x1="43.8" x2="92.2" y1="55.5" y2="29"/><polygon class="st1" id="XMLID_28_" points="68.8,18 112.4,43 112.4,96 68.8,121 25.3,96 25.3,43 "/><polyline class="st1" id="XMLID_29_" points="25.3,43 69.5,68 113.7,43 "/><line class="st1" id="XMLID_31_" x1="89" x2="47.4" y1="29" y2="55.5"/><line class="st1" id="XMLID_32_" x1="69.5" x2="69.5" y1="68" y2="121"/></svg>